# xmcd
#
# Track frame offsets:
#	150
#	20474
#	36520
#	53236
#	72256
#	91554
#	103857
#	120288
#	137308
#	154361
#	165746
#	182886
#	198636
#	215169
#	235966
#	253017
#	269998
#	291831
#	306940
#
# Disc length: 4390 seconds
#
# Revision: 2
# Processed by: cddbd v1.5.1PL0 Copyright (c) Steve Scherf et al.
# Submitted via: EasyCDDAExtractor 8.2.1.1
#
DISCID=22112413
DTITLE=Various Artist - теяфгс ватфгциаммгс иеяа одос
DYEAR=2004
DGENRE=казйа
TTITLE0=теяфгс пасвакгс - евы лиа ацапг лиа фыг
TTITLE1=теяфгс пасвакгс - пакиойаияос
TTITLE2=теяфгс пасвакгс - аявипекацос
TTITLE3=теяфгс пасвакгс - о дийос лоу о дяолос
TTITLE4=теяфгс пасвакгс - жеццаяи лоу вкыло
TTITLE5=теяфгс пасвакгс - еилаи тоу бояиа о циос
TTITLE6=теяфгс пасвакгс - йи евеи ема жеццаяи
TTITLE7=теяфгс пасвакгс - ти ма пяытохулгхы
TTITLE8=теяфгс пасвакгс - ти се моиафеи поу пгцаимы
TTITLE9=теяфгс пасвакгс - дийаиыла лоу
TTITLE10=ватфгциаммгс ливакгс - поиос токлаеи
TTITLE11=ватфгциаммгс ливакгс - есу
TTITLE12=ватфгциаммгс ливакгс - асе ле пиа
TTITLE13=ватфгциаммгс ливакгс - лоиафоум ои ыяес
TTITLE14=ватфгциаммгс ливакгс - ам ле ацапас
TTITLE15=ватфгциаммгс ливакгс - ма ле деис
TTITLE16=ватфгциаммгс ливакгс - леса сто дасос соу
TTITLE17=ватфгциаммгс ливакгс - аута поу ха екеца се сема
TTITLE18=ватфгциаммгс ливакгс - ецы се еуваяисты
EXTD=иеяа одос теяфгс-ватфгциаммгс
EXTT0=
EXTT1=
EXTT2=
EXTT3=
EXTT4=
EXTT5=
EXTT6=
EXTT7=
EXTT8=
EXTT9=
EXTT10=
EXTT11=
EXTT12=
EXTT13=
EXTT14=
EXTT15=
EXTT16=
EXTT17=
EXTT18=
PLAYORDER=
